<svg width="17" height="14" viewBox="0 0 17 14" fill="none" xmlns="http://www.w3.org/2000/svg">
<path d="M16.317 2.15967C15.7365 2.4143 15.118 2.58308 14.4731 2.66503C15.1365 2.26893 15.6429 1.6465 15.8809 0.896252C15.2624 1.26503 14.5795 1.52552 13.8517 1.67089C13.2643 1.04552 12.4273 0.658203 11.5141 0.658203C9.7424 0.658203 8.31606 2.09625 8.31606 3.85918C8.31606 4.11284 8.33752 4.35674 8.3902 4.58893C5.72971 4.45918 3.37557 3.18406 1.7941 1.24162C1.51801 1.72064 1.35606 2.26893 1.35606 2.85918C1.35606 3.96747 1.92679 4.94991 2.77752 5.51869C2.26337 5.50893 1.75898 5.35967 1.33167 5.12454C1.33167 5.1343 1.33167 5.14698 1.33167 5.15967C1.33167 6.71479 2.44093 8.0065 3.89557 8.30406C3.63508 8.37528 3.35118 8.40942 3.05654 8.40942C2.85167 8.40942 2.64484 8.39772 2.45069 8.35479C2.86532 9.62211 4.04191 10.5538 5.44093 10.5841C4.35215 11.4358 2.96971 11.9489 1.47313 11.9489C1.21069 11.9489 0.958983 11.9372 0.707275 11.905C2.12484 12.8192 3.80484 13.3411 5.61654 13.3411C11.5053 13.3411 14.7248 8.46308 14.7248 4.23479C14.7248 4.09333 14.72 3.95674 14.7131 3.82113C15.3483 3.3704 15.8819 2.80747 16.317 2.15967Z" fill="#444444"/>
</svg>
